<?xml version="1.0" encoding="utf-8"?>
<!-- Generator: Adobe Illustrator 23.1.0, SVG Export Plug-In . SVG Version: 6.00 Build 0)  -->
<svg version="1.1" id="图层_1" xmlns="http://www.w3.org/2000/svg" xmlns:xlink="http://www.w3.org/1999/xlink" x="0px" y="0px"
	 viewBox="0 0 1024 256" style="enable-background:new 0 0 1024 256;" xml:space="preserve">
<style type="text/css">
	.st0{fill:url(#SVGID_1_);}
	.st1{fill:url(#SVGID_2_);}
	.st2{fill:#3366CC;}
	.st3{fill:#CC3333;}
	.st4{fill:#FF9933;}
	.st5{fill:#33CC99;}
	.st6{fill:url(#SVGID_3_);}
	.st7{fill:url(#SVGID_4_);}
	.st8{fill:url(#SVGID_5_);}
	.st9{fill:url(#SVGID_6_);}
	.st10{fill:url(#SVGID_7_);}
	.st11{fill:url(#SVGID_8_);}
	.st12{fill:url(#SVGID_9_);}
</style>
<g>
	<g>
		<g>
			
				<linearGradient id="SVGID_1_" gradientUnits="userSpaceOnUse" x1="514.5386" y1="497.1477" x2="517.0464" y2="376.7657" gradientTransform="matrix(1 0 0 1 0 -302.0013)">
				<stop  offset="0" style="stop-color:#683FFF"/>
				<stop  offset="1" style="stop-color:#DA2AFF"/>
			</linearGradient>
			<path class="st0" d="M453.7,126.3c0-20.8,4-34.3,10.9-50.6c1-3.6,4-7.2,6.9-9c5-3.6,9.9-2.7,15.8-1.8c8.9,0.9,17.8,4.5,25.8,9
				c14.9,8.1,28.7,16.3,42.6,25.3c6.9,4.5,13.9,9.9,18.8,16.3c5,6.3,5,11.7,1,19c-5,9-11.9,16.3-21.8,22.6c-3,1.8-6.9,3.6-9.9,0.9
				c-3-1.8-4-5.4-3-9s2-6.3,4-9.9c5.9-12.6,2-23.5-6.9-32.5C531,98.5,521.1,93,509.2,93c-14.9,0-28.7,9-33.7,22.6
				c-5,15.4,3,31.6,17.8,40.7c5,2.7,9.9,3.6,15.8,3.6c4,0,7.9,0,11.9,0c3,0,5.9,0.9,7.9,2.7c4,2.7,4,6.3,1,9.9
				c-4,4.5-8.9,7.2-14.9,9.9c-6.9,3.6-13.9,6.3-20.8,8.1c-14.9,3.6-23.8,0-31.7-10.8C459.7,170.6,453.7,148,453.7,126.3z"/>
			
				<linearGradient id="SVGID_2_" gradientUnits="userSpaceOnUse" x1="510.1702" y1="497.0054" x2="512.678" y2="376.6187" gradientTransform="matrix(1 0 0 1 0 -302.0013)">
				<stop  offset="0" style="stop-color:#683FFF"/>
				<stop  offset="1" style="stop-color:#DA2AFF"/>
			</linearGradient>
			<path class="st1" d="M511.2,109.2c10.9,0,18.8,8.1,18.8,18.1c0,9-7.9,16.3-17.8,16.3c-10.9,0-18.8-8.1-18.8-18.1
				C492.4,116.4,500.3,109.2,511.2,109.2z"/>
		</g>
	</g>
	<g>
		<path class="st2" d="M111.1,119.2V74.8h-6.5v-7.8h63v7.8h-7.1v37.6l7.1-1.2v8.4l-7.1,1.2v8.1h-9.9V122l-47.2,6.5v-8.4L111.1,119.2
			z M161.7,162.4v9l-57.1,17.9v-8.5L161.7,162.4z M108,168.3v-8.7l50.6-12.4v8.7L108,168.3z M175.1,139.7v53.9h-9.6v-52.9l-50.3,4.3
			v-8.1l104.3-9v7.8L175.1,139.7z M121.1,74.8v7.8h29.5v-7.8H121.1z M121.1,99h29.5v-8.7h-29.5V99z M121.1,117.7l29.5-3.7v-7.1
			h-29.5V117.7z M173.2,76.7v-7.8h63.7v14.9L212,101.2l21.7,13.4v10.2l-29.8-18L172.6,127v-9.9l23.9-15.8l-16.8-10.6V80.4l24.8,15.5
			l22.7-16.1v-3.1H173.2z M178.2,158.4v-9.9l21.4,11.5l29.8-19.3v10.6l-21.1,13.4l27.6,15.5v10.1L178.2,158.4z"/>
		<path class="st3" d="M267.8,95v-0.6l0.6-0.3l67.7-32.6l0.3-0.3l0.6,0.3l68,31.4l0.9,0.3v0.6v7.1v2.2l-1.9-0.9l-67.4-31l-67.4,32.3
			l-1.6,0.9v-2.2V95z M275.9,134.1v-1.2h1.2h120.2h1.2v1.2v57v0.9h-1.2H277.1h-1.2v-0.9V134.1z M285.8,184.1h102.8V141H285.8V184.1z
			 M382.1,102.2h1.2v1.2v5.6v1.2h-1.2h-92.2h-1.2V109v-5.6v-1.2h1.2H382.1z"/>
		<path class="st4" d="M623.9,129.2V94.7H608v-8.1h15.8V62.1h9.9v24.5h15.8v8.1h-15.8v31l15.8-5.9v9l-15.8,5.9v57.6h-20.5l-4.3-7.9
			h14.9v-46.3l-15.8,6.2v-9.3L623.9,129.2z M745.6,140.7v19.9l-32.3,12.1l34.8,12.4v9.2l-47.2-16.6L649,194.8v-8.4l40.1-14.1
			l-27.6-10.6v-8.7l40.4,14.3l33.8-12.4v-6.2h-86v-8.1h46.9v-12.1h-41.3V69.9l34.5-5v8.4L665.2,77v15.8h24.5v8.1h-24.5v19.6h31.4
			V62.1h9.9v58.4h30.7v-19.6h-24.8v-8.1h24.8V76.1h-26.1V68h35.7v60.5h-40.4v12.1H745.6z"/>
		<path class="st5" d="M818.7,167.4v9.3l-40.4,16.6v-9.2L818.7,167.4z M843.6,185.1v-23.9h-52.2v-5.3l41.3-23h-38.2V127l46.3-26.1
			h-50.6v19.6h-9.6V93.1h59V77.6h-56.8v-8.1h56.8v-7.1h9.9v7.1h59.3v8.1h-59.3v15.5h61.2v27.9H901v-20.2h-48.7v3.7l-37.6,20.5h31.4
			l35.1-18.6v10.2l-68,36.6h75.8l-12.7-21.1h11.2l17.7,28.9h-51.5V193h-1.2h-30.4l-5.3-7.9H843.6z M870.9,167.4l41,16.8v9.2
			l-41-16.6V167.4z"/>
	</g>
</g>
<g>
	<linearGradient id="SVGID_3_" gradientUnits="userSpaceOnUse" x1="533.6603" y1="162.4527" x2="540.1489" y2="173.6914">
		<stop  offset="0" style="stop-color:#FF33FF"/>
		<stop  offset="5.631816e-02" style="stop-color:#EC2DFF"/>
		<stop  offset="0.1948" style="stop-color:#C31FFF"/>
		<stop  offset="0.337" style="stop-color:#A214FF"/>
		<stop  offset="0.4815" style="stop-color:#870BFF"/>
		<stop  offset="0.6294" style="stop-color:#7505FF"/>
		<stop  offset="0.7827" style="stop-color:#6A01FF"/>
		<stop  offset="0.9497" style="stop-color:#6600FF"/>
	</linearGradient>
	<path class="st6" d="M538,173.9h-4.7v-11.3h4.6c2.6,0,3.9,0.9,3.9,2.8c0,1.1-0.5,1.9-1.3,2.5c1,0.4,1.5,1.2,1.6,2.6
		C542.2,172.8,540.8,173.9,538,173.9z M537.6,165.3h-1.1v1.8h1.3c0.7,0,1.1-0.3,1.1-1C539,165.5,538.5,165.2,537.6,165.3z
		 M537.5,169.2h-1v2.1h1.4c0.9,0,1.4-0.3,1.4-1C539.3,169.5,538.7,169.2,537.5,169.2z"/>
	<linearGradient id="SVGID_4_" gradientUnits="userSpaceOnUse" x1="542.2096" y1="163.4451" x2="547.7865" y2="173.1046">
		<stop  offset="0" style="stop-color:#FF33FF"/>
		<stop  offset="5.631816e-02" style="stop-color:#EC2DFF"/>
		<stop  offset="0.1948" style="stop-color:#C31FFF"/>
		<stop  offset="0.337" style="stop-color:#A214FF"/>
		<stop  offset="0.4815" style="stop-color:#870BFF"/>
		<stop  offset="0.6294" style="stop-color:#7505FF"/>
		<stop  offset="0.7827" style="stop-color:#6A01FF"/>
		<stop  offset="0.9497" style="stop-color:#6600FF"/>
	</linearGradient>
	<path class="st7" d="M546.4,173.9h-2.8v-11.3h2.8V173.9z"/>
	<linearGradient id="SVGID_5_" gradientUnits="userSpaceOnUse" x1="549.2996" y1="164.8557" x2="554.7604" y2="174.3143">
		<stop  offset="0" style="stop-color:#FF33FF"/>
		<stop  offset="5.631816e-02" style="stop-color:#EC2DFF"/>
		<stop  offset="0.1948" style="stop-color:#C31FFF"/>
		<stop  offset="0.337" style="stop-color:#A214FF"/>
		<stop  offset="0.4815" style="stop-color:#870BFF"/>
		<stop  offset="0.6294" style="stop-color:#7505FF"/>
		<stop  offset="0.7827" style="stop-color:#6A01FF"/>
		<stop  offset="0.9497" style="stop-color:#6600FF"/>
	</linearGradient>
	<path class="st8" d="M555.4,165.7v8.2h-2.6v-1.2c-0.6,0.9-1.4,1.4-2.6,1.3c-1.7,0-2.5-1.1-2.5-3.3v-5h2.8v4.4c0,1.1,0.3,1.6,1,1.5
		c0.7,0,1-0.6,1-2v-3.9H555.4z"/>
	<linearGradient id="SVGID_6_" gradientUnits="userSpaceOnUse" x1="558.2911" y1="166.1104" x2="562.6013" y2="173.5759">
		<stop  offset="0" style="stop-color:#FF33FF"/>
		<stop  offset="5.631816e-02" style="stop-color:#EC2DFF"/>
		<stop  offset="0.1948" style="stop-color:#C31FFF"/>
		<stop  offset="0.337" style="stop-color:#A214FF"/>
		<stop  offset="0.4815" style="stop-color:#870BFF"/>
		<stop  offset="0.6294" style="stop-color:#7505FF"/>
		<stop  offset="0.7827" style="stop-color:#6A01FF"/>
		<stop  offset="0.9497" style="stop-color:#6600FF"/>
	</linearGradient>
	<path class="st9" d="M564.6,170.5h-5.3c0,1,0.5,1.6,1.4,1.6c0.5,0,0.8-0.2,1-0.7h2.6c-0.5,1.6-1.7,2.5-3.9,2.6
		c-2.6-0.1-3.9-1.5-4-4.2c0.1-2.7,1.5-4.2,4-4.4C563.1,165.6,564.5,167.3,564.6,170.5z M559.3,168.9h2.6c-0.1-0.8-0.5-1.3-1.3-1.4
		C559.7,167.5,559.3,168,559.3,168.9z"/>
	<linearGradient id="SVGID_7_" gradientUnits="userSpaceOnUse" x1="564.2955" y1="163.1767" x2="570.0052" y2="173.0662">
		<stop  offset="0" style="stop-color:#FF33FF"/>
		<stop  offset="5.631816e-02" style="stop-color:#EC2DFF"/>
		<stop  offset="0.1948" style="stop-color:#C31FFF"/>
		<stop  offset="0.337" style="stop-color:#A214FF"/>
		<stop  offset="0.4815" style="stop-color:#870BFF"/>
		<stop  offset="0.6294" style="stop-color:#7505FF"/>
		<stop  offset="0.7827" style="stop-color:#6A01FF"/>
		<stop  offset="0.9497" style="stop-color:#6600FF"/>
	</linearGradient>
	<path class="st10" d="M565.8,164.7v-2.3h2.8v2.3H565.8z M568.5,173.9h-2.8v-8.2h2.8V173.9z"/>
	<linearGradient id="SVGID_8_" gradientUnits="userSpaceOnUse" x1="570.6643" y1="165.3104" x2="576.1252" y2="174.7689">
		<stop  offset="0" style="stop-color:#FF33FF"/>
		<stop  offset="5.631816e-02" style="stop-color:#EC2DFF"/>
		<stop  offset="0.1948" style="stop-color:#C31FFF"/>
		<stop  offset="0.337" style="stop-color:#A214FF"/>
		<stop  offset="0.4815" style="stop-color:#870BFF"/>
		<stop  offset="0.6294" style="stop-color:#7505FF"/>
		<stop  offset="0.7827" style="stop-color:#6A01FF"/>
		<stop  offset="0.9497" style="stop-color:#6600FF"/>
	</linearGradient>
	<path class="st11" d="M570,173.9v-8.2h2.6v1.3c0.6-1,1.4-1.5,2.3-1.5c1.8,0,2.7,1.2,2.7,3.6v4.9h-2.8v-4.4c0-1-0.4-1.5-1-1.5
		c-0.7,0-1.1,0.6-1,1.7v4.2H570z"/>
	<linearGradient id="SVGID_9_" gradientUnits="userSpaceOnUse" x1="578.7616" y1="162.745" x2="585.6676" y2="174.7066">
		<stop  offset="0" style="stop-color:#FF33FF"/>
		<stop  offset="5.631816e-02" style="stop-color:#EC2DFF"/>
		<stop  offset="0.1948" style="stop-color:#C31FFF"/>
		<stop  offset="0.337" style="stop-color:#A214FF"/>
		<stop  offset="0.4815" style="stop-color:#870BFF"/>
		<stop  offset="0.6294" style="stop-color:#7505FF"/>
		<stop  offset="0.7827" style="stop-color:#6A01FF"/>
		<stop  offset="0.9497" style="stop-color:#6600FF"/>
	</linearGradient>
	<path class="st12" d="M582.2,171l-0.5,0.6v2.3H579v-11.3h2.8v5.6l1.8-2.5h3.2l-2.6,3.2l2.9,5h-3.3L582.2,171z"/>
</g>
</svg>
