<?xml version="1.0" encoding="utf-8"?>
<!-- Generator: Adobe Illustrator 23.1.0, SVG Export Plug-In . SVG Version: 6.00 Build 0)  -->
<svg version="1.1" id="图层_1" xmlns="http://www.w3.org/2000/svg" xmlns:xlink="http://www.w3.org/1999/xlink" x="0px" y="0px"
	 viewBox="0 0 197 156" style="enable-background:new 0 0 197 156;" xml:space="preserve">
<style type="text/css">
	.st0{fill:url(#SVGID_1_);}
	.st1{fill:url(#SVGID_2_);}
	.st2{fill:url(#SVGID_3_);}
	.st3{fill:url(#SVGID_4_);}
	.st4{fill:url(#SVGID_5_);}
	.st5{fill:url(#SVGID_6_);}
	.st6{fill:url(#SVGID_7_);}
	.st7{fill:url(#SVGID_8_);}
	.st8{fill:url(#SVGID_9_);}
</style>
<g>
	<g>
		
			<linearGradient id="SVGID_1_" gradientUnits="userSpaceOnUse" x1="93.5807" y1="-286.1486" x2="96.0885" y2="-165.7666" gradientTransform="matrix(1 0 0 -1 0 -138.0026)">
			<stop  offset="0" style="stop-color:#683FFF"/>
			<stop  offset="1" style="stop-color:#DA2AFF"/>
		</linearGradient>
		<path class="st0" d="M32.7,79.3c0-20.8,4-34.3,10.9-50.6c1-3.6,4-7.2,6.9-9c5-3.6,9.9-2.7,15.8-1.8c8.9,0.9,17.8,4.5,25.8,9
			c14.9,8.1,28.7,16.3,42.6,25.3c6.9,4.5,13.9,9.9,18.8,16.3c5,6.3,5,11.7,1,19c-5,9-11.9,16.3-21.8,22.6c-3,1.8-6.9,3.6-9.9,0.9
			c-3-1.8-4-5.4-3-9s2-6.3,4-9.9c5.9-12.6,2-23.5-6.9-32.5C110,51.5,100.1,46,88.2,46c-14.9,0-28.7,9-33.7,22.6
			c-5,15.4,3,31.6,17.8,40.7c5,2.7,9.9,3.6,15.8,3.6c4,0,7.9,0,11.9,0c3,0,5.9,0.9,7.9,2.7c4,2.7,4,6.3,1,9.9
			c-4,4.5-8.9,7.2-14.9,9.9c-6.9,3.6-13.9,6.3-20.8,8.1c-14.9,3.6-23.8,0-31.7-10.8C38.7,123.6,32.7,101,32.7,79.3z"/>
		
			<linearGradient id="SVGID_2_" gradientUnits="userSpaceOnUse" x1="89.2123" y1="-286.0063" x2="91.7201" y2="-165.6196" gradientTransform="matrix(1 0 0 -1 0 -138.0026)">
			<stop  offset="0" style="stop-color:#683FFF"/>
			<stop  offset="1" style="stop-color:#DA2AFF"/>
		</linearGradient>
		<path class="st1" d="M90.2,62.2c10.9,0,18.8,8.1,18.8,18.1c0,9-7.9,16.3-17.8,16.3c-10.9,0-18.8-8.1-18.8-18.1
			C71.4,69.4,79.3,62.2,90.2,62.2z"/>
	</g>
</g>
<g>
	
		<linearGradient id="SVGID_3_" gradientUnits="userSpaceOnUse" x1="112.6419" y1="48.5367" x2="119.1305" y2="37.298" gradientTransform="matrix(1 0 0 -1 0 163.9987)">
		<stop  offset="0" style="stop-color:#FF33FF"/>
		<stop  offset="5.631816e-02" style="stop-color:#EC2DFF"/>
		<stop  offset="0.1948" style="stop-color:#C31FFF"/>
		<stop  offset="0.337" style="stop-color:#A214FF"/>
		<stop  offset="0.4815" style="stop-color:#870BFF"/>
		<stop  offset="0.6294" style="stop-color:#7505FF"/>
		<stop  offset="0.7827" style="stop-color:#6A01FF"/>
		<stop  offset="0.9497" style="stop-color:#6600FF"/>
	</linearGradient>
	<path class="st2" d="M117,126.9h-4.7v-11.3h4.6c2.6,0,3.9,0.9,3.9,2.8c0,1.1-0.5,1.9-1.3,2.5c1,0.4,1.5,1.2,1.6,2.6
		C121.2,125.8,119.8,126.9,117,126.9z M116.6,118.3h-1.1v1.8h1.3c0.7,0,1.1-0.3,1.1-1C118,118.5,117.5,118.2,116.6,118.3z
		 M116.5,122.2h-1v2.1h1.4c0.9,0,1.4-0.3,1.4-1C118.3,122.5,117.7,122.2,116.5,122.2z"/>
	
		<linearGradient id="SVGID_4_" gradientUnits="userSpaceOnUse" x1="121.2218" y1="47.562" x2="126.7988" y2="37.9025" gradientTransform="matrix(1 0 0 -1 0 163.9987)">
		<stop  offset="0" style="stop-color:#FF33FF"/>
		<stop  offset="5.631816e-02" style="stop-color:#EC2DFF"/>
		<stop  offset="0.1948" style="stop-color:#C31FFF"/>
		<stop  offset="0.337" style="stop-color:#A214FF"/>
		<stop  offset="0.4815" style="stop-color:#870BFF"/>
		<stop  offset="0.6294" style="stop-color:#7505FF"/>
		<stop  offset="0.7827" style="stop-color:#6A01FF"/>
		<stop  offset="0.9497" style="stop-color:#6600FF"/>
	</linearGradient>
	<path class="st3" d="M125.4,126.9h-2.8v-11.3h2.8V126.9z"/>
	
		<linearGradient id="SVGID_5_" gradientUnits="userSpaceOnUse" x1="128.2264" y1="46.102" x2="133.6871" y2="36.6434" gradientTransform="matrix(1 0 0 -1 0 163.9987)">
		<stop  offset="0" style="stop-color:#FF33FF"/>
		<stop  offset="5.631816e-02" style="stop-color:#EC2DFF"/>
		<stop  offset="0.1948" style="stop-color:#C31FFF"/>
		<stop  offset="0.337" style="stop-color:#A214FF"/>
		<stop  offset="0.4815" style="stop-color:#870BFF"/>
		<stop  offset="0.6294" style="stop-color:#7505FF"/>
		<stop  offset="0.7827" style="stop-color:#6A01FF"/>
		<stop  offset="0.9497" style="stop-color:#6600FF"/>
	</linearGradient>
	<path class="st4" d="M134.4,118.7v8.2h-2.6v-1.2c-0.6,0.9-1.4,1.4-2.6,1.3c-1.7,0-2.5-1.1-2.5-3.3v-5h2.8v4.4c0,1.1,0.3,1.6,1,1.5
		c0.7,0,1-0.6,1-2v-3.9H134.4z"/>
	
		<linearGradient id="SVGID_6_" gradientUnits="userSpaceOnUse" x1="137.2901" y1="44.8891" x2="141.6004" y2="37.4236" gradientTransform="matrix(1 0 0 -1 0 163.9987)">
		<stop  offset="0" style="stop-color:#FF33FF"/>
		<stop  offset="5.631816e-02" style="stop-color:#EC2DFF"/>
		<stop  offset="0.1948" style="stop-color:#C31FFF"/>
		<stop  offset="0.337" style="stop-color:#A214FF"/>
		<stop  offset="0.4815" style="stop-color:#870BFF"/>
		<stop  offset="0.6294" style="stop-color:#7505FF"/>
		<stop  offset="0.7827" style="stop-color:#6A01FF"/>
		<stop  offset="0.9497" style="stop-color:#6600FF"/>
	</linearGradient>
	<path class="st5" d="M143.6,123.5h-5.3c0,1,0.5,1.6,1.4,1.6c0.5,0,0.8-0.2,1-0.7h2.6c-0.5,1.6-1.7,2.5-3.9,2.6
		c-2.6-0.1-3.9-1.5-4-4.2c0.1-2.7,1.5-4.2,4-4.4C142.1,118.6,143.5,120.3,143.6,123.5z M138.3,121.9h2.6c-0.1-0.8-0.5-1.3-1.3-1.4
		C138.7,120.5,138.3,121,138.3,121.9z"/>
	
		<linearGradient id="SVGID_7_" gradientUnits="userSpaceOnUse" x1="143.2829" y1="47.816" x2="148.9926" y2="37.9265" gradientTransform="matrix(1 0 0 -1 0 163.9987)">
		<stop  offset="0" style="stop-color:#FF33FF"/>
		<stop  offset="5.631816e-02" style="stop-color:#EC2DFF"/>
		<stop  offset="0.1948" style="stop-color:#C31FFF"/>
		<stop  offset="0.337" style="stop-color:#A214FF"/>
		<stop  offset="0.4815" style="stop-color:#870BFF"/>
		<stop  offset="0.6294" style="stop-color:#7505FF"/>
		<stop  offset="0.7827" style="stop-color:#6A01FF"/>
		<stop  offset="0.9497" style="stop-color:#6600FF"/>
	</linearGradient>
	<path class="st6" d="M144.8,117.7v-2.3h2.8v2.3H144.8z M147.5,126.9h-2.8v-8.2h2.8V126.9z"/>
	
		<linearGradient id="SVGID_8_" gradientUnits="userSpaceOnUse" x1="149.6559" y1="45.6787" x2="155.1168" y2="36.2202" gradientTransform="matrix(1 0 0 -1 0 163.9987)">
		<stop  offset="0" style="stop-color:#FF33FF"/>
		<stop  offset="5.631816e-02" style="stop-color:#EC2DFF"/>
		<stop  offset="0.1948" style="stop-color:#C31FFF"/>
		<stop  offset="0.337" style="stop-color:#A214FF"/>
		<stop  offset="0.4815" style="stop-color:#870BFF"/>
		<stop  offset="0.6294" style="stop-color:#7505FF"/>
		<stop  offset="0.7827" style="stop-color:#6A01FF"/>
		<stop  offset="0.9497" style="stop-color:#6600FF"/>
	</linearGradient>
	<path class="st7" d="M149,126.9v-8.2h2.6v1.3c0.6-1,1.4-1.5,2.3-1.5c1.8,0,2.7,1.2,2.7,3.6v4.9h-2.8v-4.4c0-1-0.4-1.5-1-1.5
		c-0.7,0-1.1,0.6-1,1.7v4.2H149V126.9z"/>
	
		<linearGradient id="SVGID_9_" gradientUnits="userSpaceOnUse" x1="157.8073" y1="48.2887" x2="164.7133" y2="36.3271" gradientTransform="matrix(1 0 0 -1 0 163.9987)">
		<stop  offset="0" style="stop-color:#FF33FF"/>
		<stop  offset="5.631816e-02" style="stop-color:#EC2DFF"/>
		<stop  offset="0.1948" style="stop-color:#C31FFF"/>
		<stop  offset="0.337" style="stop-color:#A214FF"/>
		<stop  offset="0.4815" style="stop-color:#870BFF"/>
		<stop  offset="0.6294" style="stop-color:#7505FF"/>
		<stop  offset="0.7827" style="stop-color:#6A01FF"/>
		<stop  offset="0.9497" style="stop-color:#6600FF"/>
	</linearGradient>
	<path class="st8" d="M161.2,124l-0.5,0.6v2.3H158v-11.3h2.8v5.6l1.8-2.5h3.2l-2.6,3.2l2.9,5h-3.3L161.2,124z"/>
</g>
</svg>
